<?xml version="1.0" standalone="no"?>
<!DOCTYPE svg PUBLIC "-//W3C//DTD SVG 20010904//EN"
 "http://www.w3.org/TR/2001/REC-SVG-20010904/DTD/svg10.dtd">
<svg version="1.0" xmlns="http://www.w3.org/2000/svg"
 width="430.000000pt" height="324.000000pt" viewBox="0 0 430.000000 324.000000"
 preserveAspectRatio="xMidYMid meet">

<g transform="translate(0.000000,324.000000) scale(0.100000,-0.100000)"
fill="#000000" stroke="none">
<path d="M1570 3155 c-223 -42 -427 -151 -590 -314 -236 -237 -349 -554 -318
-890 34 -374 263 -708 604 -883 49 -25 107 -51 129 -58 22 -7 44 -15 48 -17 4
-3 -15 -33 -43 -69 -27 -35 -50 -69 -50 -76 1 -7 21 -38 45 -68 25 -30 53 -71
64 -90 28 -50 96 -119 171 -173 36 -25 72 -53 81 -62 9 -8 18 -15 20 -15 2 0
30 -24 61 -53 57 -53 56 -52 105 -212 l18 -60 840 0 c462 0 946 2 1076 4 226
3 236 4 232 22 -3 11 -10 19 -16 19 -6 0 -18 7 -27 15 -10 9 -26 17 -38 20
-30 5 -82 34 -82 45 0 5 -12 13 -27 16 -16 4 -44 17 -63 29 -19 12 -46 26 -60
30 -14 4 -34 15 -45 24 -11 9 -45 30 -75 46 -120 63 -200 113 -200 125 0 4 9
15 20 25 25 22 25 36 2 55 -21 18 -298 156 -331 165 -32 9 -15 24 39 33 24 4
45 12 46 17 1 6 -60 66 -137 133 -76 68 -137 128 -134 132 3 4 23 6 45 3 33
-5 40 -3 40 11 0 9 -3 16 -7 16 -5 0 -21 25 -36 54 -16 30 -43 72 -61 92 -32
37 -34 38 -57 22 -13 -9 -73 -64 -133 -122 l-110 -106 25 -26 c13 -14 81 -83
150 -152 104 -106 154 -164 237 -277 4 -5 20 -30 36 -55 16 -25 37 -55 48 -66
18 -20 54 -130 64 -199 5 -29 5 -29 -11 -10 -152 191 -211 248 -184 177 13
-34 49 -171 49 -186 0 -6 -10 1 -21 17 -35 46 -46 35 -48 -45 -1 -39 -3 -73
-5 -75 -3 -4 -16 29 -76 197 -30 84 -31 86 -93 123 -34 21 -100 65 -147 97
-46 33 -89 60 -95 60 -6 0 -24 -43 -40 -95 -17 -52 -34 -93 -40 -92 -5 2 -14
23 -18 48 -5 24 -12 60 -16 79 -5 29 -11 36 -34 38 -26 3 -27 1 -27 -42 0 -25
-4 -47 -9 -50 -4 -3 -21 9 -37 27 l-28 32 -9 -40 c-4 -22 -10 -50 -13 -63 -7
-35 -27 -21 -45 31 -8 26 -18 50 -22 53 -3 4 -28 -13 -54 -36 -86 -76 -110
-74 -68 4 27 52 23 55 -34 25 -37 -19 -61 -19 -61 -1 0 4 16 25 36 47 66 74
65 71 45 161 -23 105 -19 114 54 107 47 -5 55 -3 55 11 0 21 -31 89 -60 131
-35 52 -20 75 24 36 11 -11 46 -43 76 -70 84 -77 92 -67 30 37 -94 158 -111
183 -138 193 -15 6 -35 15 -44 20 -10 5 -24 9 -33 9 -15 0 -42 40 -28 41 4 0
26 2 48 4 140 12 151 9 190 -55 17 -27 33 -50 37 -50 11 0 21 67 14 93 -3 12
-18 28 -33 34 -15 7 -35 16 -43 21 -8 6 -26 14 -40 20 -14 6 -50 22 -80 35
-30 14 -81 37 -112 51 -66 29 -67 30 -39 131 19 68 20 88 2 69 -5 -5 -93 -115
-196 -244 -103 -129 -194 -236 -201 -238 -25 -6 -168 47 -247 92 -280 160
-449 414 -488 734 -27 228 42 482 182 669 265 354 752 486 1157 313 282 -120
490 -362 564 -656 29 -114 31 -331 5 -436 -26 -104 -78 -226 -132 -308 -48
-73 -173 -208 -228 -246 l-27 -19 53 -58 54 -58 49 39 c67 53 176 172 225 246
124 188 181 383 181 616 0 233 -55 420 -180 610 -155 235 -379 394 -662 471
-99 27 -378 35 -490 14z"/>
<path d="M865 625 c-94 -119 -140 -168 -165 -179 -45 -20 -115 -45 -164 -58
-21 -6 -55 -27 -75 -47 -72 -71 -201 -214 -201 -222 0 -5 219 -8 502 -7 l502
3 13 50 c7 28 13 82 13 121 0 65 -2 73 -28 96 -29 25 -56 34 -207 64 -44 8
-88 18 -97 20 -37 11 -32 93 13 222 10 28 16 52 14 52 -3 0 -1 9 5 21 28 50
-4 17 -125 -136z"/>
<path d="M1546 231 c-4 -5 -2 -21 4 -36 14 -36 3 -51 -21 -29 -17 15 -20 15
-43 0 -34 -22 -39 -20 -32 9 4 14 2 25 -3 25 -11 0 -81 -71 -81 -82 0 -5 77
-8 170 -8 94 0 170 3 170 6 0 3 -12 21 -27 40 -20 27 -31 34 -49 30 -17 -5
-29 2 -47 24 -28 32 -33 35 -41 21z"/>
</g>
</svg>
